<?xml version="1.0" encoding="UTF-8"?>
<svg id="Layer_1" data-name="Layer 1" xmlns="http://www.w3.org/2000/svg" viewBox="0 0 359.42 198.55">
  <defs>
    <style>
      .cls-1 {
        fill: none;
      }

      .cls-2 {
        fill: #6e757b;
      }
    </style>
  </defs>
  <path class="cls-2" d="m123.31,154.23c2.26,0,3.3,1.37,3.3,3.61v7.32c0,2.22-1.04,3.58-3.3,3.58h-3.4v-14.51h3.4Zm-.02,13.04c1.16,0,1.72-.73,1.72-2.05v-7.46c0-1.33-.56-2.05-1.74-2.05h-1.74v11.56h1.76Z"/>
  <polygon class="cls-2" points="138.19 160.65 138.19 162.1 134.65 162.1 134.65 167.26 139 167.26 139 168.73 133.03 168.73 133.03 154.23 139 154.23 139 155.7 134.65 155.7 134.65 160.65 138.19 160.65"/>
  <polygon class="cls-2" points="145.41 168.73 145.41 154.23 147.03 154.23 147.03 167.26 151.17 167.26 151.17 168.73 145.41 168.73"/>
  <rect class="cls-2" x="157.31" y="154.23" width="1.62" height="14.51"/>
  <polygon class="cls-2" points="178.98 168.71 177.43 168.71 175.02 157.17 175.02 168.73 173.61 168.73 173.61 154.23 175.87 154.23 178.26 165.81 180.56 154.23 182.82 154.23 182.82 168.73 181.28 168.73 181.28 157.07 178.98 168.71"/>
  <path class="cls-2" d="m191.03,165.81l-.56,2.92h-1.49l2.78-14.51h2.34l2.78,14.51h-1.62l-.56-2.92h-3.67Zm.21-1.39h3.23l-1.64-8.37-1.6,8.37Z"/>
  <path class="cls-2" d="m206.29,154.23c2.28,0,3.23,1.16,3.23,3.32v1.18c0,1.6-.56,2.59-1.8,2.99,1.33.39,1.82,1.47,1.82,3.03v2.26c0,.64.02,1.24.29,1.74h-1.64c-.19-.42-.27-.79-.27-1.76v-2.28c0-1.64-.77-2.16-2.11-2.16h-1.14v6.2h-1.62v-14.51h3.23Zm-.41,6.84c1.29,0,2.05-.41,2.05-1.99v-1.39c0-1.31-.48-1.99-1.68-1.99h-1.58v5.37h1.2Z"/>
  <polygon class="cls-2" points="218.61 162.43 217.76 163.86 217.76 168.73 216.14 168.73 216.14 154.23 217.76 154.23 217.76 161.23 221.61 154.23 223.25 154.23 219.58 160.84 223.38 168.73 221.72 168.73 218.61 162.43"/>
  <polygon class="cls-2" points="234.7 160.65 234.7 162.1 231.15 162.1 231.15 167.26 235.51 167.26 235.51 168.73 229.54 168.73 229.54 154.23 235.51 154.23 235.51 155.7 231.15 155.7 231.15 160.65 234.7 160.65"/>
  <polygon class="cls-2" points="244.01 168.73 244.01 155.7 241.34 155.7 241.34 154.23 248.28 154.23 248.28 155.7 245.61 155.7 245.61 168.73 244.01 168.73"/>
  <path class="cls-2" d="m111.01,39.95l27.16,63.65c5.56,12.79,15.68,34.56,21.16,35.61h-31.31c3.09-.7.4-10.75-3.27-21.15h-46.76c-3.67,10.4-6.36,20.45-3.27,21.15h-16.42c4.82-.92,13.18-17.78,18.92-30.55l29.78-68.7h4Zm-24.53,56.56c-1.43,3.38-4.4,10.46-7.16,17.89h44.11c-2.75-7.43-5.72-14.49-7.15-17.88l-14.79-34.66-15.02,34.65Z"/>
  <path class="cls-2" d="m172.43,39.95c-5.77,1.29,5.41,33.99,8.39,42.67l8.62,24.71,8.61-24.68c2.96-8.64,14.17-41.41,8.4-42.7h16.3c-5.33,1.04-13.55,22.18-18.15,35.04l-2.68,7.67-19.74,56.55-22.41-64.21c-4.6-12.85-12.83-34.01-18.16-35.04h30.82Z"/>
  <path class="cls-2" d="m288.1,47.07h.02c21.35,11.49,28.15,40.39,15.19,64.52-12.97,24.13-40.83,34.4-62.18,22.92-21.35-11.48-28.16-40.38-15.19-64.51,12.96-24.11,40.8-34.38,62.15-22.94h.02Zm-46.98,31.09c-12.01,22.35-11.26,46.14,1.68,53.1,12.94,6.96,33.2-5.54,45.22-27.89,12.01-22.35,11.26-46.14-1.68-53.1-12.94-6.96-33.2,5.54-45.22,27.89"/>
  <rect class="cls-1" width="359.42" height="198.55"/>
</svg>