<svg id="Layer_1" data-name="Layer 1" xmlns="http://www.w3.org/2000/svg" viewBox="0 0 447.48 61.08"><defs><style>.cls-1,.cls-2{fill:#6f757b;}.cls-2{opacity:0.55;isolation:isolate;}</style></defs><title>DXOMARK gris</title><g id="Logos"><path class="cls-1" d="M88.55,45.22c-4.3-3.51-10.13-5.29-17.32-5.29H39v2.85l5.69,1.57V78.69H72.45a24.58,24.58,0,0,0,15.73-5.06,17.17,17.17,0,0,0,7-13.94A17.86,17.86,0,0,0,88.55,45.22ZM72.43,69.5H55.09V48.91H72.43c9.92,0,11.85,7.39,11.85,10.54C84.28,62.39,82.57,69.5,72.43,69.5Z" transform="translate(-39.01 -27.77)"/><polygon class="cls-1" points="122.3 12.16 107.74 12.16 93.78 24.86 79.8 12.16 65.23 12.16 86.47 31.31 64.51 50.92 79.09 50.92 93.72 37.67 108.44 50.92 123.03 50.92 101.06 31.27 122.3 12.16"/><path class="cls-1" d="M330.14,40.08,307.45,78.64h11.32l4.48-7.83h24l4.49,7.83h11.32L340.4,40.08ZM328.48,62l6.84-11.56L342.08,62Z" transform="translate(-39.01 -27.77)"/><path class="cls-1" d="M418.28,61.31a11.08,11.08,0,0,0,3.41-8.43,11.78,11.78,0,0,0-4.12-9.39c-2.67-2.26-6.32-3.41-10.84-3.41H374.19V78.64h10.14V65.3h16.89l10.53,13.34h12.08L412.9,64.35A13.11,13.11,0,0,0,418.28,61.31Zm-12.82-4H384.33V48.44h21.13c5.79,0,5.92,3.31,5.92,4.27,0,1.17-.26,4.64-5.92,4.64Z" transform="translate(-39.01 -27.77)"/><polygon class="cls-1" points="408.26 12.31 399.77 12.31 399.77 50.87 409.99 50.87 409.99 12.31 408.26 12.31"/><polygon class="cls-1" points="230.8 32.49 213 12.31 202.24 12.31 202.24 50.87 212.38 50.87 212.38 25.15 230.74 46.04 249.27 25.12 249.27 50.87 259.41 50.87 259.41 12.31 248.68 12.31 230.8 32.49"/><polygon class="cls-1" points="423.24 29.62 443.4 12.31 430.11 12.31 410.39 29.62 433.37 50.88 447.48 50.88 423.24 29.62"/><path class="cls-1" d="M181.12,64.25a21.62,21.62,0,0,1,.66-5.3H165.11v1.84l5.81,2.77h0a29.26,29.26,0,0,0,29,24.28,29.56,29.56,0,0,0,12.28-2.66l-.19-.32a22.61,22.61,0,0,1-30.89-20.61Z" transform="translate(-39.01 -27.77)"/><path class="cls-2" d="M199.93,76.77A18,18,0,0,1,181.81,59h0a21.64,21.64,0,0,0-.66,5.31,22.37,22.37,0,0,0,22.56,22.18h0a22.92,22.92,0,0,0,8.3-1.62l-5.4-9.36A17.78,17.78,0,0,1,199.93,76.77Z" transform="translate(-39.01 -27.77)"/><path class="cls-1" d="M194,38.62A24,24,0,0,1,208.4,43l.21.11L214,33.36h0l2.59-4.71-1.61-.88-5.22,3.76h0A30.11,30.11,0,0,0,199.48,30a29.19,29.19,0,0,0-28.66,27h.56A23.67,23.67,0,0,1,194,38.62Z" transform="translate(-39.01 -27.77)"/><path class="cls-2" d="M199.73,41a18.38,18.38,0,0,1,8.67,2A24,24,0,0,0,194,38.62,23.67,23.67,0,0,0,171.38,57l10.76-.24A18,18,0,0,1,199.73,41Z" transform="translate(-39.01 -27.77)"/><path class="cls-1" d="M229.29,59a28.68,28.68,0,0,0-12.87-23.9l-.25.43a22,22,0,0,1-7.27,39l5.52,9.55h0l2.76,4.78,1.58-.92-.51-6.41A28.63,28.63,0,0,0,229.29,59Z" transform="translate(-39.01 -27.77)"/><path class="cls-2" d="M225.15,53.23a22,22,0,0,0-9-17.71l-5.33,9.23a17.64,17.64,0,0,1-2,29.71v.07A22.26,22.26,0,0,0,225.15,53.23Z" transform="translate(-39.01 -27.77)"/></g></svg>