<svg id="Layer_1" data-name="Layer 1" xmlns="http://www.w3.org/2000/svg" xmlns:xlink="http://www.w3.org/1999/xlink" viewBox="0 0 1080 1080"><defs><style>.cls-1,.cls-5{fill:#6f757b;}.cls-2{fill:#cbd3d8;}.cls-3{fill:url(#linear-gradient);}.cls-4{fill:url(#linear-gradient-2);}.cls-5{font-size:116.74px;font-family:AvenirNext-Medium, Avenir Next;}.cls-6{letter-spacing:-0.02em;}.cls-7{letter-spacing:-0.05em;}.cls-8{letter-spacing:0em;}.cls-9{letter-spacing:-0.02em;}</style><linearGradient id="linear-gradient" x1="191.75" y1="441.9" x2="735.42" y2="441.9" gradientUnits="userSpaceOnUse"><stop offset="0" stop-color="#6f757b"/><stop offset="0.28" stop-color="#858b91"/><stop offset="0.86" stop-color="#bcc4c9"/><stop offset="1" stop-color="#cbd3d8"/></linearGradient><linearGradient id="linear-gradient-2" x1="888.25" y1="441.74" x2="452.53" y2="441.74" xlink:href="#linear-gradient"/></defs><title>Nuevo logo JF</title><path class="cls-1" d="M317,618.3a59.89,59.89,0,0,0-24.56,12.26,3.77,3.77,0,0,0,2.33,6.72c29.93-3.69,69,3.06,114.25,11.56,8.84.54,25.07,1.18,44,7.58,62,21,209.12,40.9,314.51-19.46a3.77,3.77,0,0,0,3.76-3.77V610.94c0-.09,0-.18,0-.26,1.72-22.13-8.65-35-29.29-40.63a3.79,3.79,0,0,1-1.45-.75l-36.74-31a3.79,3.79,0,0,1-1.29-2.35l-5.14-36.44a3.59,3.59,0,0,1,.28-2c2.7-6.06,1-10.25-4.1-13a3.69,3.69,0,0,0-2.55-.31c-9.36,2.22-17.18-2.21-23-15.21a4.11,4.11,0,0,1-.31-1.24C666.4,451.5,660.49,439,650.06,430a3.72,3.72,0,0,1-1.28-2.9c.49-29.35-1.64-53.36-12.71-59.12a3.68,3.68,0,0,1-1.8-4.26c5.69-20.21-.49-38.44-16.35-55.06a3,3,0,0,1-.28-.34c-9-12.2-17.53-22-25-25.32a3.76,3.76,0,0,0-4.61,1.31c-7.39,10.62-16.06,33.09-25,58.14a3.76,3.76,0,0,1-4.66,2.32,40,40,0,0,0-13.21-1.9,3.74,3.74,0,0,0-3,1.7c-6.47,10-8.72,33.49-12.24,52.58a3.71,3.71,0,0,1-.61,1.45L512.55,423a3.79,3.79,0,0,1-4.41,1.39c-5-1.81-9.77-2.25-13.83.73a3.8,3.8,0,0,0-.78.82l-22.11,31.21a3.76,3.76,0,0,1-6.12,0h0a3.77,3.77,0,0,0-6.32.33l-17.55,30.63a3.76,3.76,0,0,1-3,1.88c-20.14,1.26-34.89,13.38-46.48,31.88"/><path class="cls-2" d="M518.27,414.24,528,485.71a.56.56,0,0,0,1.06.16L555.64,427a.56.56,0,0,1,1,0l13,27.41a.56.56,0,0,0,1,0l18.53-48.64a.55.55,0,0,1,1,0l3.88,8.15a.56.56,0,0,0,1,.07L605.65,398a.56.56,0,0,1,1,.11L629,455a.56.56,0,0,0,1,0l13.72-43.45a.56.56,0,0,1,1-.09l3,5.63a.56.56,0,0,0,1.05-.27c0-30.08-4.66-47.9-15-50.38a.56.56,0,0,1-.41-.7c6.83-23.57.17-42.33-15.63-57.85l0-.06c-11.35-15.34-20.9-25.16-27.64-26.4a.57.57,0,0,0-.53.2c-5.3,6.66-19.94,35.76-33.23,61.61a.56.56,0,0,1-.66.27c-4.34-1.32-8.44-1.88-12.15-1.21a.52.52,0,0,0-.35.2c-4.76,5.95-6.84,14.21-8.05,23.22-3.31,20.17-8.78,36.44-16.78,48.14A.57.57,0,0,0,518.27,414.24Z"/><path class="cls-2" d="M508.39,559.36l-10-2.64a.6.6,0,0,1-.3-.19c-7.43-9-10.07-19.92-9.94-31.82a.55.55,0,0,0-.33-.51c-3.56-1.68-7.42-9.06-11.47-20.29a.61.61,0,0,0-.07-.14l-6.86-9.26a.56.56,0,0,0-1,.33,84.18,84.18,0,0,1-7.91,35.05.56.56,0,0,1-.92.13c-6.32-7-12.85-12.4-19.66-15.77a.52.52,0,0,0-.28,0c-21.16,1-35.89,12.9-47,31a.57.57,0,0,0-.08.38,43.3,43.3,0,0,1-5.17,29.33.55.55,0,0,0,.41.82c7.34,1,13-.11,16.28-4.56a.51.51,0,0,0,.1-.21c3.3-13.78,7.74-24.67,14.51-29.67a.55.55,0,0,1,.54-.07c11.18,4.37,21.07,7.33,26.17,5a.54.54,0,0,1,.78.48c.15,10.45-8.2,23.81-19.06,38a.6.6,0,0,0-.11.3l-.6,8.86a.55.55,0,0,0,1,.3c4.47-8.17,9.37-14.49,15.09-17.29a.56.56,0,0,0,.3-.41c1.54-9.55,4.44-18.25,10.16-25.18a.56.56,0,0,1,1,.18c2.91,8.93,3.74,19.34,3.62,30.41,0,11.63,10.64,16.56,18.13,4.76l0,0,4.38-8.2a.57.57,0,0,1,.43-.29l17.06-1.89a.55.55,0,0,0,.48-.43c1-4.29,2.17-8.14,4.25-8.09,2.41.11,5.3,3.86,8.34,8.78a.56.56,0,0,0,1-.06c2.39-5.48,2.64-14.53,6.75-24.29a.55.55,0,0,0-.88-.63l-8.67,7.72A.56.56,0,0,1,508.39,559.36Z"/><path class="cls-2" d="M590,449.77v5a.56.56,0,0,1-.15.39c-1.51,1.57-3.75,1.68-6.31,1.14a.56.56,0,0,0-.53.92l4.57,5.07a.48.48,0,0,0,.11.09,12.85,12.85,0,0,1,6.64,10.11v0l2.79,14.85a.55.55,0,0,0,1.1-.1V469.6a.78.78,0,0,1,0-.16q3.91-12.87-7.39-20.15A.56.56,0,0,0,590,449.77Z"/><path class="cls-2" d="M656,486a37.68,37.68,0,0,0-10.36,16.31.56.56,0,0,1-.33.36c-6.52,2.41-14,1.16-22.42-3.95a.56.56,0,0,0-.84.39c-1,5.71.44,12.2,7,20.27a.56.56,0,0,1-.32.9c-13.33,2.88-22.47,3.32-27,1.07a.56.56,0,0,0-.73.78c3.7,6.66,8.83,10.78,16.79,9.9a.54.54,0,0,1,.53.26c5.1,8.27,8,5.54,9.92-1.66a.55.55,0,0,1,.57-.41c4.81.43,7.24,5.59,8.36,13.32a.58.58,0,0,0,.38.46c4.87,1.58,8.3.23,9.71-5.25a.56.56,0,0,1,.3-.37c3.66-1.72,9.31-1.41,17.11,5.36a.57.57,0,0,0,.4.13c8.48-.41,13.22-1.89,11.28-5.27a.5.5,0,0,0-.15-.17l-10.88-8.49a.56.56,0,0,1-.21-.52l.77-5.78a.56.56,0,0,0-.57-.62c-7.1.09-12.92-1.89-17.11-6.52a.63.63,0,0,1-.13-.53c1.39-5.41,4.65-8.8,11-8.91a.54.54,0,0,0,.55-.62l-2.69-20.1A.56.56,0,0,0,656,486Z"/><path class="cls-2" d="M555.79,557.09l4,8.06a.56.56,0,0,1-.5.8h0a.56.56,0,0,0-.26,1l13.62,7.09a.53.53,0,0,1,.29.39c2.27,12.69,7.5,23.2,17.06,30.67a.61.61,0,0,0,.57.07C594.18,603.9,601,608.41,608,613a.55.55,0,0,0,.81-.23l1-2.22a.56.56,0,0,0-.14-.65c-12.18-11-21.76-20.9-27.83-30.47a.55.55,0,0,1,.1-.7l2.71-2.56a.56.56,0,0,0-.1-.89c-3.21-1.9-5.18-4.08-5.78-6.55a.55.55,0,0,0-.79-.35l-3.89,2a.56.56,0,0,1-.62-.06A48.7,48.7,0,0,1,558.88,551a.57.57,0,0,0-.51-.34h-4a.56.56,0,0,0-.53.73c.49,1.45,1.13,3.38,1.87,5.59Z"/><path class="cls-1" d="M735.42,173.75c-270.31-167.52-461.71,46-458.48,268.78C272,683.73,470.87,871.43,735.42,709.62c-212,95.6-393-54.77-393-267.09C342.42,202.71,554,93.76,735.42,173.75Z"/><path class="cls-1" d="M452.53,227.08c171.69-54,316.71,34.47,316.71,225,0,183.4-147,251-316.71,204.21,232.47,127.5,395.9-27.86,383-208.76C849.19,257.79,670.1,96,452.53,227.08Z"/><path class="cls-3" d="M735.42,173.75c-272.16-185.66-544,34.8-543.67,263.39,0,248.75,282.57,455.55,543.67,272.48-233.14,120.64-452-56.58-452-272.48C283.45,193.26,534.15,72.63,735.42,173.75Z"/><path class="cls-4" d="M452.53,227.08c168.11-79.66,359,24.06,359,214.61,0,183.39-191.52,298.17-359,214.61,218.19,145.34,435.39-21.79,435.72-219.16C888.25,238.14,655.76,86.28,452.53,227.08Z"/><text class="cls-5" transform="translate(26 924.81)">Jo<tspan class="cls-6" x="129" y="0">r</tspan><tspan x="169.16" y="0">ge </tspan><tspan class="cls-7" x="339.01" y="0">F</tspan><tspan class="cls-8" x="399.72" y="0">arías</tspan><tspan class="cls-9" x="650.59" y="0"> </tspan><tspan x="677.67" y="0">Arizpe</tspan></text></svg>