<svg id="Layer_1" data-name="Layer 1" xmlns="http://www.w3.org/2000/svg" xmlns:xlink="http://www.w3.org/1999/xlink" viewBox="0 0 904.16 904.16"><defs><style>.cls-1{fill:none;}.cls-2{opacity:0.8;fill:url(#radial-gradient);}</style><radialGradient id="radial-gradient" cx="636.3" cy="537.97" r="393.3" gradientTransform="matrix(1, 0, 0, -1, 0, 1080)" gradientUnits="userSpaceOnUse"><stop offset="0" stop-color="#5aede9"/><stop offset="0.29" stop-color="#56ed56"/><stop offset="0.45" stop-color="#5aede9"/><stop offset="0.58" stop-color="#56ed56"/><stop offset="0.74" stop-color="#5aede9"/><stop offset="0.82" stop-color="#59edbc"/><stop offset="1" stop-color="#56ed56"/></radialGradient></defs><title>MimeticLogo</title><rect class="cls-1" width="904.16" height="904.16" rx="93.58" ry="93.58"/><path class="cls-2" d="M971.15,332.09c2.64,9.14,4.87,18.29,6.84,27.48.9,4.57,1.86,9.18,2.67,13.78s1.6,9.21,2.29,13.83a554,554,0,0,1,5.39,55.91c.33,9.36.58,18.83.48,28.3-.1,4.73-.14,9.49-.33,14.25l-.26,7.16c-.1,2.38-.29,4.76-.44,7.14-.29,4.78-.68,9.56-1.09,14.37s-.91,9.62-1.48,14.42c-1.22,9.59-2.46,19.33-4.23,29s-3.75,19.4-6,29.18-4.88,19.52-7.89,29.27-6.22,19.54-9.86,29.3l-2.78,7.32-2.93,7.32c-2,4.87-4.15,9.71-6.27,14.59a467.81,467.81,0,0,1-30.9,57.53,455.1,455.1,0,0,1-40.6,54.88c-3.77,4.42-7.71,8.72-11.66,13.06s-8.08,8.53-12.29,12.68-8.47,8.28-12.83,12.34-8.84,8-13.41,11.87a479,479,0,0,1-58.49,42.73,508.86,508.86,0,0,1-64.43,33.78q-16.62,7.29-33.56,13.33c-5.64,2-11.3,4-17,5.78l-4.25,1.38-1.07.34-.45.14-.37.13-1.47.51-5.89,2-3,1.08a33.33,33.33,0,0,1-3.9,1.24c-3.73,1-7.48,2-11.24,2.93-7.53,1.85-15.13,3.42-22.76,4.81s-15.3,2.53-23,3.52-15.4,1.63-23.11,2.1-15.43.78-23.12.84-15.38-.15-23-.52-15.27-1-22.86-1.72-15.12-1.82-22.61-3a413.7,413.7,0,0,1-44.2-9.47c-7.26-1.94-14.44-4.1-21.56-6.39s-14.14-4.86-21.11-7.51A434.54,434.54,0,0,1,330.29,907q-10-5-19.68-10.56c-6.49-3.65-12.86-7.52-19.14-11.55a446.88,446.88,0,0,1-36.64-26c-11.8-9.39-23.25-19.36-34.24-30q-8.21-8-16.09-16.57T189.08,794.7a435.45,435.45,0,0,1-28.32-38.4,413.69,413.69,0,0,1-24.5-42.74c-3.72-7.49-7.28-15.15-10.57-23s-6.35-15.88-9.21-24-5.45-16.53-7.83-25-4.37-17.15-6.18-25.9a388.13,388.13,0,0,1-7.13-53.79q-.8-13.71-.69-27.51c.12-9.2.5-18.41,1.25-27.59a388.08,388.08,0,0,1,45.74-152.88c4-7.45,8.19-14.59,12.5-21.61S163,318.49,167.58,312a417.52,417.52,0,0,1,28.79-36.43c5-5.61,10-11.06,15.08-16.27l3.82-3.9,3.83-3.8,3.94-3.83,5.28-5,2.67-2.49,1.33-1.24,1.57-1.41q3.27-2.9,6.57-5.73l1.57-1.33,1.2-1,2.39-1.95c1.6-1.3,3.2-2.59,4.85-3.87,6.51-5.13,13.34-10.2,20.42-15.05s14.48-9.59,22.11-14.13,15.55-8.9,23.74-13a371.74,371.74,0,0,1,52.18-21.3A355.35,355.35,0,0,1,426,147.13a344.37,344.37,0,0,1,59.43-3.23A332.8,332.8,0,0,1,763.76,311a320.24,320.24,0,0,1,23.31,50.71A304.09,304.09,0,0,1,801.15,417a286.12,286.12,0,0,1-5.23,115.32A272.78,272.78,0,0,1,776.54,585,276.61,276.61,0,0,1,749,629.76l-10.6,15.61a281,281,0,0,1-40.13,34.37,251,251,0,0,1-48.44,26.85,235.33,235.33,0,0,1-26.56,9.3,230.84,230.84,0,0,1-55,8.8,223.21,223.21,0,0,1-79.56-11.54,212.86,212.86,0,0,1-47.56-23A197.1,197.1,0,0,1,419.49,674a188.19,188.19,0,0,1-19.82-19.61,178,178,0,0,1-31.38-50.94,156.66,156.66,0,0,1-8.57-31.17,142.27,142.27,0,0,1-1.62-32.72,131.34,131.34,0,0,1,11.19-44.75,134.46,134.46,0,0,1,6.38-12.41,126.8,126.8,0,0,1,15-20.46A134.53,134.53,0,0,1,407,446.52a144.92,144.92,0,0,1,16.62-11.28c1.68-1.09,3.35-2.17,5-3.18l2.54-1.46,1.27-.71,1-.48c2.71-1.28,5.56-2.5,8.46-3.68,5.83-2.37,12-4.63,18.76-6.68A135.85,135.85,0,0,1,484,414.11a100.29,100.29,0,0,1,15-.71,72.7,72.7,0,0,1,18.65,2.92A63.19,63.19,0,0,1,528,420.43a55.45,55.45,0,0,1,9.86,6.39,50.06,50.06,0,0,1,13.56,16.91,47.22,47.22,0,0,1,4.56,15.9,50.28,50.28,0,0,1-.21,12.5,58.25,58.25,0,0,1-2.4,10,62.33,62.33,0,0,1-3.43,8.33,81.91,81.91,0,0,1-8.57,13.7,105.59,105.59,0,0,1-9.88,11.26l-4.16,4.06a11.46,11.46,0,0,1-19.07-11.2A105.33,105.33,0,0,0,512,487a41.58,41.58,0,0,0-.37-9.26c-.43-2.66-1.35-4.75-2-5.32-.3-.33-.42-.29-.46-.26s-.1.06-.49,0a12.21,12.21,0,0,0-2,.2,19.41,19.41,0,0,0-3.27.94,43,43,0,0,0-8,4.1,84.51,84.51,0,0,0-8.24,6.08c-1.33,1.13-2.67,2.3-4,3.52l-.5.45-.43.41-.86.81c-.56.57-1.08,1.15-1.62,1.72a92.56,92.56,0,0,0-6.66,8,63.32,63.32,0,0,0-9.19,17c-4,11.55-2.83,22.86,3.15,32.84A52.17,52.17,0,0,0,479,561.82a69.91,69.91,0,0,0,16.51,9.86,85,85,0,0,0,76.21-4.92,99.34,99.34,0,0,0,29.57-27l-1.41,2.09A111,111,0,0,0,613.58,503a102.31,102.31,0,0,0-2.18-40.33,115.68,115.68,0,0,0-17.23-37.26,127,127,0,0,0-13.27-16.09,131.31,131.31,0,0,0-15.66-13.86,129.08,129.08,0,0,0-36.75-19.33,120.24,120.24,0,0,0-80.79,1.54,135.62,135.62,0,0,0-19,8.78A156.6,156.6,0,0,0,410.86,398c-2.86,2.15-5.7,4.36-8.45,6.71-.7.57-1.38,1.17-2.06,1.77s-1.42,1.22-2,1.76l-1.8,1.63c-.61.52-1.21,1.21-1.82,1.8l-1.82,1.85-1.93,2c-1.3,1.34-2.56,2.72-3.81,4.1-2.52,2.76-4.94,5.58-7.32,8.43a203.07,203.07,0,0,0-24.28,36.46A163.39,163.39,0,0,0,341,504.65a150.78,150.78,0,0,0-3.18,42,162,162,0,0,0,8.26,41.69,184.21,184.21,0,0,0,18.67,39,221.09,221.09,0,0,0,61,63.26,233.2,233.2,0,0,0,80.74,35.95,207.93,207.93,0,0,0,43.76,5.2c3.67,0,7.34,0,11-.18s7.32-.42,11-.81,7.28-.82,10.89-1.4c1.81-.28,3.62-.6,5.42-.93.85-.15,1.9-.37,2.89-.57s2-.42,3-.6c8.24-1.47,15.6-3,23.18-4.72s15-3.69,22.39-5.91a355.72,355.72,0,0,0,43.39-15.88,347.91,347.91,0,0,0,78.7-48.2,404.86,404.86,0,0,0,65.25-66.76q14.45-18.63,27.2-38.67c4.31-6.64,8.38-13.44,12.42-20.27s7.88-13.8,11.57-20.85c7.45-14,14.45-28.36,20.89-43s12.65-29.46,18.29-44.52q16.9-45.19,29.81-92.12a11.39,11.39,0,0,1,21.92-.15Z" transform="translate(-88.84 -73.98)"/></svg>